<?xml version="1.0" encoding="UTF-8"?>
<svg width="200px" height="200px" viewBox="0 0 200 200" version="1.1" xmlns="http://www.w3.org/2000/svg" xmlns:xlink="http://www.w3.org/1999/xlink">
    <!-- Generator: Sketch 52.3 (67297) - http://www.bohemiancoding.com/sketch -->
    <title>Group 6</title>
    <desc>Created with Sketch.</desc>
    <g id="Page-1" stroke="none" stroke-width="1" fill="none" fill-rule="evenodd">
        <g id="Group-6">
            <g id="Group-7">
                <g id="Group-8">
                    <rect id="Rectangle" fill="#171A31" x="0" y="0" width="200" height="200" rx="16"></rect>
                    <g id="Group-5" transform="translate(65.750000, 33.250000)">
                        <path d="M0,121.793562 C4.02825934,120.318082 6.90406115,117.702497 8.62749169,113.94673 C10.3509222,110.190962 11.2126246,105.541034 11.2126246,99.9968063 L11.2126246,86.3822177 C11.2126246,81.6875085 12.1366187,77.5517552 13.9846346,73.9748339 C15.8326504,70.3979126 18.6876883,67.6258402 22.5498339,65.6585335 C18.6876883,63.7359383 15.8326504,60.9750435 13.9846346,57.3757665 C12.1366187,53.7764894 11.2126246,49.5848476 11.2126246,44.8007154 L11.2126246,31.1861267 C11.2126246,25.6418987 10.3509222,20.9919707 8.62749169,17.2362034 C6.90406115,13.480436 4.02825934,10.8648515 0,9.38937149 L2.99003322,0 C11.0465519,2.4591334 16.7981555,6.36015469 20.2450166,11.7031809 C23.6918777,17.0462071 25.4152824,23.5404574 25.4152824,31.1861267 L25.4152824,44.8007154 C25.4152824,49.5401361 26.3911863,53.2064255 28.3430233,55.7996934 C30.2948603,58.3929614 33.3471553,59.6895759 37.5,59.6895759 L37.5,71.6274911 C33.3471553,71.6274911 30.2948603,72.9241056 28.3430233,75.5173735 C26.3911863,78.1106415 25.4152824,81.73222 25.4152824,86.3822177 L25.4152824,99.9968063 C25.4152824,107.642476 23.6918777,114.147904 20.2450166,119.513286 C16.7981555,124.878668 11.0465519,128.790867 2.99003322,131.25 L0,121.793562 Z" id="}" fill="#FB53A3"></path>
                        <path d="M37.5,121.793562 C41.5282593,120.318082 44.4040612,117.702497 46.1274917,113.94673 C47.8509222,110.190962 48.7126246,105.541034 48.7126246,99.9968063 L48.7126246,86.3822177 C48.7126246,81.6875085 49.6366187,77.5517552 51.4846346,73.9748339 C53.3326504,70.3979126 56.1876883,67.6258402 60.0498339,65.6585335 C56.1876883,63.7359383 53.3326504,60.9750435 51.4846346,57.3757665 C49.6366187,53.7764894 48.7126246,49.5848476 48.7126246,44.8007154 L48.7126246,31.1861267 C48.7126246,25.6418987 47.8509222,20.9919707 46.1274917,17.2362034 C44.4040612,13.480436 41.5282593,10.8648515 37.5,9.38937149 L40.4900332,0 C48.5465519,2.4591334 54.2981555,6.36015469 57.7450166,11.7031809 C61.1918777,17.0462071 62.9152824,23.5404574 62.9152824,31.1861267 L62.9152824,44.8007154 C62.9152824,49.5401361 63.8911863,53.2064255 65.8430233,55.7996934 C67.7948603,58.3929614 70.8471553,59.6895759 75,59.6895759 L75,71.6274911 C70.8471553,71.6274911 67.7948603,72.9241056 65.8430233,75.5173735 C63.8911863,78.1106415 62.9152824,81.73222 62.9152824,86.3822177 L62.9152824,99.9968063 C62.9152824,107.642476 61.1918777,114.147904 57.7450166,119.513286 C54.2981555,124.878668 48.5465519,128.790867 40.4900332,131.25 L37.5,121.793562 Z" id="}" fill="#C3E4FF"></path>
                    </g>
                </g>
            </g>
        </g>
    </g>
</svg>